<svg xmlns="http://www.w3.org/2000/svg" width="16" height="15" viewBox="0 0 16 15">
  <defs>
    <style>
      .cls-1 {
        fill: #b4242c;
        fill-rule: evenodd;
      }
    </style>
  </defs>
  <path id="Forma_1" data-name="Forma 1" class="cls-1" d="M813.005,1014.43h1.278v-10.09h-1.278v10.09Zm14.387-10.09V1000H821v4.345h-2.5v10.09H829v-10.09h-1.6Zm-4.5,7.99H821.66v-1.23h1.234v1.23Zm0-2.03H821.66v-1.23h1.234v1.23Zm0-1.94H821.66v-1.23h1.234v1.23Zm2.276,3.97h-1.234v-1.23h1.234v1.23Zm0-2.03h-1.234v-1.23h1.234v1.23Zm0-1.94h-1.234v-1.23h1.234v1.23Zm2.274,3.97h-1.232v-1.23h1.232v1.23Zm0-2.03h-1.232v-1.23h1.232v1.23Zm0-1.94h-1.232v-1.23h1.232v1.23Zm0.759-2.3h-8.012v-1.08H821v0.54h6.389v-0.54H828.2v1.08Zm-13.417,8.95h3.225v-11.79h-3.225v11.79Zm11.757-13.81h-4.55v-0.42h4.55v0.42h0Zm0,1.14h-4.55v-0.43h4.55v0.43h0Z" transform="translate(-813 -1000)"/>
</svg>
