<svg xmlns="http://www.w3.org/2000/svg" width="16" height="13" viewBox="0 0 16 13">
  <defs>
    <style>
      .cls-1 {
        fill: #b4242c;
        fill-rule: evenodd;
      }
    </style>
  </defs>
  <path id="Forma_1" data-name="Forma 1" class="cls-1" d="M821.089,970.373c2.7,0.026,4.386-.14,4.614,2.81h3.289c0-4.57-4.039-5.186-7.989-5.186s-7.989.616-7.989,5.186h3.263C816.53,970.177,818.414,970.347,821.089,970.373Zm-6.444,4.279c0.8,0,1.468.048,1.616-.73a1.954,1.954,0,0,0,.031-0.364H813C813,974.715,813.736,974.652,814.645,974.652Zm11.079-1.094h-0.03a1.76,1.76,0,0,0,.034.364c0.157,0.717.822,0.673,1.62,0.673,0.915,0,1.655.059,1.655-1.037h-3.279Zm-1.606-.788v-0.459c0-.206-0.24-0.219-0.537-0.219H823.1c-0.3,0-.536.013-0.536,0.219v0.7h-3.424v-0.7c0-.206-0.24-0.219-0.536-0.219h-0.485c-0.3,0-.536.013-0.536,0.219v0.861a33.972,33.972,0,0,0-3.425,4.618v2.751a0.464,0.464,0,0,0,.467.461h12.452a0.464,0.464,0,0,0,.467-0.461v-2.765a34.758,34.758,0,0,0-3.424-4.6v-0.4Zm-5.15,5.39a0.448,0.448,0,1,1,.454-0.448A0.45,0.45,0,0,1,818.968,978.16Zm0-1.536a0.448,0.448,0,1,1,.454-0.448A0.451,0.451,0,0,1,818.968,976.624Zm0-1.536a0.448,0.448,0,1,1,.454-0.448A0.451,0.451,0,0,1,818.968,975.088Zm1.868,3.072a0.448,0.448,0,1,1,.454-0.448A0.45,0.45,0,0,1,820.836,978.16Zm0-1.536a0.448,0.448,0,1,1,.454-0.448A0.451,0.451,0,0,1,820.836,976.624Zm0-1.536a0.448,0.448,0,1,1,.454-0.448A0.451,0.451,0,0,1,820.836,975.088Zm1.868,3.072a0.448,0.448,0,1,1,.454-0.448A0.45,0.45,0,0,1,822.7,978.16Zm0-1.536a0.448,0.448,0,1,1,.454-0.448A0.451,0.451,0,0,1,822.7,976.624Zm0-1.536a0.448,0.448,0,1,1,.454-0.448A0.451,0.451,0,0,1,822.7,975.088Z" transform="translate(-813 -968)"/>
</svg>
