<svg xmlns="http://www.w3.org/2000/svg" width="12" height="17" viewBox="0 0 12 17">
  <defs>
    <style>
      .cls-1 {
        fill: #b4242c;
        fill-rule: evenodd;
      }
    </style>
  </defs>
  <path id="Forma_1" data-name="Forma 1" class="cls-1" d="M824.716,786.231a5.118,5.118,0,0,0-.281-0.68A6,6,0,0,0,813,787.274V788c0,0.03.011,0.3,0.026,0.438,0.217,1.693,1.585,3.491,2.607,5.183,1.1,1.814,2.24,3.6,3.37,5.38,0.7-1.163,1.392-2.342,2.073-3.475,0.185-.333.4-0.666,0.587-0.983,0.123-.211.36-0.423,0.468-0.619,1.1-1.965,2.869-3.944,2.869-5.894v-0.8A5.85,5.85,0,0,0,824.716,786.231Zm-5.749,3.642a2.129,2.129,0,0,1-2.039-1.42,1.937,1.937,0,0,1-.057-0.53v-0.468a2,2,0,0,1,2.163-1.934,2.166,2.166,0,0,1,2.2,2.176A2.224,2.224,0,0,1,818.967,789.873Z" transform="translate(-813 -782)"/>
</svg>
