<svg xmlns="http://www.w3.org/2000/svg" width="15" height="15" viewBox="0 0 15 15">
  <defs>
    <style>
      .cls-1 {
        fill: #b4242c;
        fill-rule: evenodd;
      }
    </style>
  </defs>
  <path id="Forma_1" data-name="Forma 1" class="cls-1" d="M822,1061.02V1061h-1v0.02a7.5,7.5,0,0,0-6.983,6.98H814v1h0.017a7.5,7.5,0,0,0,6.983,6.98V1076h1v-0.02a7.494,7.494,0,0,0,6.982-6.98H829v-1h-0.018A7.494,7.494,0,0,0,822,1061.02Zm-3.3,1.61a8.054,8.054,0,0,0-1.176,2.37h-1.5A6.56,6.56,0,0,1,818.7,1062.63Zm-3.2,3.37h1.758a11.812,11.812,0,0,0-.246,2h-1.991A6.45,6.45,0,0,1,815.5,1066Zm-0.479,3h1.991a11.812,11.812,0,0,0,.246,2H815.5A6.45,6.45,0,0,1,815.019,1069Zm1,3h1.5a8.031,8.031,0,0,0,1.177,2.37A6.56,6.56,0,0,1,816.021,1072Zm4.979,2.94a4.241,4.241,0,0,1-2.45-2.94H821v2.94Zm0-3.94h-2.731a11.188,11.188,0,0,1-.259-2H821v2Zm0-3h-2.99a11.188,11.188,0,0,1,.259-2H821v2Zm0-3h-2.45a4.241,4.241,0,0,1,2.45-2.94V1065Zm5.979,0h-1.5a8.031,8.031,0,0,0-1.177-2.37A6.567,6.567,0,0,1,826.979,1065ZM822,1062.06a4.244,4.244,0,0,1,2.45,2.94H822v-2.94Zm0,3.94h2.73a11.187,11.187,0,0,1,.26,2H822v-2Zm0,3h2.99a11.1,11.1,0,0,1-.26,2H822v-2Zm0,5.94V1072h2.45A4.244,4.244,0,0,1,822,1074.94Zm2.3-.57a8.055,8.055,0,0,0,1.177-2.37h1.5A6.567,6.567,0,0,1,824.305,1074.37Zm3.2-3.37h-1.758a11.812,11.812,0,0,0,.246-2h1.99A6.421,6.421,0,0,1,827.5,1071Zm-1.512-3a11.812,11.812,0,0,0-.246-2H827.5a6.421,6.421,0,0,1,.478,2h-1.99Z" transform="translate(-814 -1061)"/>
</svg>
